PathFileType	4	(X/Y/Z)	C:/Users/beibeiliu/ov580/test_trc\sequence.13_training_dense_left.trc
DataRate	CameraRate	NumFrames	NumMarkers	Units	OrigDataRate	OrigDataStartFrame	OrigNumFrames
120	120	22	19	mm	120	1	79
Frame#	Time	ThumbCMC			ThumbMCP			ThumbIP			ThumbTip			IndexMCP			IndexPIP			IndexTip			MiddleMCP			MiddlePIP			MiddleTip			RingMCP			RingPIP			RingTip			PinkyMCP			PinkyPIP			PinkyTip			BackHand1			BackHand2			BackHand3	
		X0	Y0	Z0	X1	Y1	Z1	X2	Y2	Z2	X3	Y3	Z3	X4	Y4	Z4	X5	Y5	Z5	X6	Y6	Z6	X7	Y7	Z7	X8	Y8	Z8	X9	Y9	Z9	X10	Y10	Z10	X11	Y11	Z11	X12	Y12	Z12	X13	Y13	Z13	X14	Y14	Z14	X15	Y15	Z15	X16	Y16	Z16	X17	Y17	Z17	X18	Y18	Z18	
0	0	-146.082	42.5353	51.2564	-133.699	24.9952	32.0106	-123.963	15.1343	11.4549	-123.24	2.79372	-11.1366	-155.321	43.4797	-16.774	-149.253	31.3877	-37.8243	-144.612	8.19759	-56.6099	-176.126	42.2525	-23.8559	-176.814	31.8386	-48.4161	-177.571	12.5029	-68.3145	-194.468	38.416	-19.1367	-196.563	31.4929	-37.7188	-197.534	19.2598	-56.7705	-216.519	31.4366	-4.26667	-219.351	24.7447	-18.5429	-219.977	16.831	-39.219	-195.362	55.3741	23.1314	-196.917	61.3156	53.5518	-171.037	62.7519	36.8291	
1	0.00833333	-148.088	41.747	47.9521	-133.211	25.3178	29.7456	-129.747	15.4094	10.2538	-124.834	1.98735	-10.9066	-156.346	42.8163	-19.361	-151.428	28.7495	-42.5453	-147.538	6.63362	-57.6416	-176.004	41.5232	-27.343	-176.523	32.899	-47.3777	-178.269	11.6048	-69.0626	-199.553	38.2213	-17.8794	-196.295	30.2679	-38.8627	-197.649	16.1502	-62.1022	-213.935	32.082	-1.68428	-221.242	22.4988	-23.8417	-223.967	17.6281	-38.6795	-198.194	54.1344	25.9057	-196.284	61.9552	49.7335	-170.499	61.5364	34.1515	
2	0.0166667	-148.592	40.673	49.5184	-135.257	24.8073	32.153	-126.769	12.9129	7.17285	-125.827	2.7058	-6.78302	-151.125	40.6195	-22.5789	-151.891	28.8208	-40.779	-144.028	9.50344	-55.7431	-178.557	41.6293	-24.5714	-176.899	30.8777	-48.4558	-175.616	12.3943	-68.3628	-194.545	38.4724	-16.6575	-196.842	27.1292	-43.0652	-198.796	14.9806	-61.0537	-216.078	32.0175	-3.35638	-221.38	22.3783	-21.8188	-222.321	15.2266	-38.4938	-198.935	54.3269	24.7695	-195.547	59.9559	49.2092	-172.239	60.8124	36.4597	
3	0.025	-145.152	40.4424	44.4926	-135.78	24.1224	28.7943	-128.187	13.0435	8.91335	-124.098	1.80484	-5.67252	-153.877	39.8303	-22.6149	-147.368	26.3401	-43.7715	-149.487	9.13576	-55.5142	-176.258	41.3024	-23.7759	-177.268	28.709	-50.6091	-178.462	10.0264	-68.7696	-194.44	37.7211	-19.8592	-197.854	27.1337	-42.2896	-196.887	17.5679	-57.5431	-211.432	32.0466	-3.24644	-217.514	24.2542	-23.2891	-223.36	16.848	-39.6301	-196.885	52.8992	21.5094	-199.175	59.7707	47.3524	-170.493	60.7279	32.9042	
4	0.0333333	-149.543	39.6648	47.8492	-134.273	23.0179	26.9373	-125.107	11.9333	10.1956	-121.717	-0.0628522	-7.99978	-150.88	41.0787	-19.7402	-148.762	29.0491	-40.4989	-144.347	9.0585	-55.9053	-173.668	40.8502	-29.8796	-173.921	26.6463	-52.3554	-175.688	11.179	-68.4144	-198.588	36.3193	-18.9197	-196.18	26.8193	-44.2628	-198.005	13.3402	-61.1362	-216.644	30.4426	-5.16317	-215.413	24.1557	-22.9099	-221.823	14.8412	-40.8338	-197.439	54.3994	21.6447	-193.125	60.4536	45.8417	-170.809	59.2368	32.7557	
5	0.0416667	-148.371	39.4764	43.2707	-135.087	23.5239	26.8969	-127.577	12.6666	5.47575	-121.741	0.0634443	-10.4143	-149.475	42.9117	-18.8833	-150.731	27.5378	-43.8509	-144.509	10.0655	-55.9094	-176.569	41.2036	-29.0679	-173.52	30.3515	-51.1129	-176.999	10.7222	-69.033	-197.977	37.9991	-19.8978	-197.452	27.41	-44.7185	-197.241	15.3586	-59.414	-213.343	33.4219	-6.69842	-213.88	25.7538	-23.2627	-216.654	10.5526	-40.3027	-193.677	55.4779	24.9412	-195.182	59.7974	47.7043	-167.111	60.1338	34.279	
6	0.05	-145.668	40.3092	43.2837	-133.093	23.214	24.4758	-130.008	12.9245	7.68355	-126.198	2.99811	-12.0922	-152.082	46.3356	-23.9325	-146.047	35.7277	-40.9955	-145.122	15.2884	-56.6679	-175.666	46.3463	-29.9317	-170.974	37.7567	-50.1611	-171.295	16.138	-72.1885	-191.124	43.2438	-18.9296	-192.627	33.0543	-43.7588	-187.632	17.0998	-63.8888	-213.046	35.3523	-8.79639	-210.509	22.783	-30.1482	-205.256	6.52052	-41.1232	-192.165	55.1668	25.4666	-196.905	60.07	49.5436	-170.478	63.2039	36.1546	
7	0.0583333	-145.183	43.8942	46.0058	-134.208	25.5896	23.7945	-128.591	15.8313	-0.965677	-129.481	4.49095	-19.1517	-149.225	57.0856	-23.3392	-142.648	43.3024	-45.9221	-142.776	25.9968	-58.8755	-171.585	57.0118	-30.3299	-168.965	49.0733	-52.6174	-163.113	26.9242	-75.4799	-187.841	51.5991	-21.9031	-189.682	40.2972	-46.7724	-183.299	24.8116	-61.9255	-208.362	40.9902	-15.2514	-201.812	27.9026	-30.5321	-188.128	3.99547	-32.315	-196.632	59.855	23.9898	-196.156	63.0384	46.8902	-166.972	69.1314	35.5223	
8	0.0666667	-143.985	45.2603	39.9429	-136.627	26.5495	15.885	-137.898	17.7853	-4.7546	-146.025	7.59006	-27.3447	-145.899	65.4652	-21.7202	-139.556	53.5034	-48.5306	-132.602	33.2927	-63.2046	-168.892	68.0514	-27.1546	-168.987	61.9413	-57.4052	-164.101	46.806	-78.3233	-187.032	59.1664	-25.4312	-186.026	49.4715	-48.9399	-175.757	31.8812	-65.3058	-204.525	45.1922	-14.6176	-194.446	28.834	-30.4014	-180.7	6.69606	-21.744	-191.408	64.7404	20.9452	-194.785	65.3658	48.3943	-166.407	70.5728	35.3456	
9	0.075	-143.905	42.7641	37.9489	-134.601	19.9702	11.0602	-139.472	10.5078	-9.04182	-158.764	4.58631	-24.3452	-141.873	63.6872	-25.077	-139.457	57.4402	-47.4696	-133.171	41.6778	-68.1376	-166.687	69.127	-30.9167	-166.216	68.758	-56.065	-167.179	60.7661	-80.7182	-183.743	59.0959	-28.3388	-189.22	51.1705	-49.4738	-182.363	36.0793	-68.6057	-199.007	42.4143	-15.3114	-191.618	18.4853	-26.3616	-177.108	6.27358	-11.4993	-191.598	64.4499	19.2022	-190.783	66.3435	42.5263	-162.296	69.6364	33.4855	
10	0.0833333	-141.393	31.5862	34.5128	-139.627	7.46314	11.3908	-151.245	-2.6152	-9.25135	-174.924	-6.93628	-22.0851	-143.665	47.7184	-28.525	-136.679	42.2751	-48.714	-133.688	32.2589	-72.8415	-168.74	54.2905	-34.8097	-169.221	53.6386	-55.1451	-175.747	52.8048	-79.8018	-191.784	44.6004	-26.5663	-193.201	39.367	-48.2864	-191.302	29.8999	-71.1186	-201.209	29.1531	-14.0443	-194.427	3.79896	-19.7617	-179.682	-3.24893	-1.40044	-189.572	56.0668	18.0125	-187.02	58.7211	39.8914	-161.481	60.5431	29.2321	
11	0.0916667	-146.889	12.3464	40.2663	-142.841	-15.9253	16.3846	-158.407	-24.4599	-3.17939	-183.722	-22.1845	-9.86712	-144.059	21.8742	-26.985	-139.104	16.8298	-47.9042	-136.675	13.9805	-66.1217	-170.463	28.1036	-31.0264	-174.18	27.4316	-54.4697	-177.479	29.476	-79.5932	-192.477	22.5586	-22.4913	-193.574	16.3561	-43.768	-199.153	11.5471	-62.8022	-203.837	5.45711	-13.2303	-199.493	-15.0252	-11.606	-184.874	-19.5536	12.3824	-188.823	40.1689	16.3138	-188.017	45.5831	41.6618	-157.887	38.9981	27.4144	
12	0.1	-148.515	0.371719	38.8027	-150.014	-26.4018	21.9161	-163.652	-39.798	3.2118	-190.178	-38.2621	-5.00381	-145.961	6.01527	-25.0016	-140.501	2.30275	-43.1606	-138.579	1.82444	-60.9276	-171.442	10.3487	-30.6898	-176.726	8.52628	-52.9501	-181.12	10.707	-72.29	-196.393	7.45323	-20.8898	-195.497	-0.2598	-43.3165	-201.281	-4.67792	-60.4905	-210.4	-6.8286	-4.64098	-204.44	-30.2437	-3.52347	-185.486	-30.1985	19.232	-186.151	24.0173	17.037	-185.948	33.6667	45.0607	-161.144	26.2598	30.8107	
13	0.108333	-146.723	-4.10646	43.625	-147.638	-33.2382	21.3175	-163.879	-43.6083	3.18681	-191.224	-42.6129	-2.24866	-150.972	3.91261	-21.1512	-144.586	1.63516	-39.6606	-139.347	3.34428	-63.1965	-173.792	6.4955	-31.3564	-175.559	3.02066	-51.8497	-179.468	3.82415	-71.5077	-193.899	2.18423	-22.1213	-196.918	-4.35582	-38.2989	-199.734	-9.49707	-57.7985	-207.159	-14.2576	-6.75518	-201.354	-36.8548	1.96596	-184.969	-33.7639	19.8595	-187.389	19.947	17.9938	-185.594	31.2913	42.7433	-160.656	25.7199	32.4375	
14	0.116667	-143.406	1.82466	40.3398	-145.198	-26.5653	21.4722	-160.69	-38.6478	2.52809	-187.083	-36.7305	-4.57985	-149.412	12.5706	-25.6171	-144.79	11.3565	-43.2934	-138.709	13.8796	-64.2892	-170.937	13.5649	-29.746	-173.086	10.4479	-52.5279	-180.303	10.7033	-79.1819	-191.848	9.06776	-23.033	-195.659	2.57664	-42.7658	-196.783	-2.769	-59.6371	-209.35	-8.61619	-8.01921	-202.798	-29.8122	-4.43559	-184.207	-30.7747	19.8971	-190.231	28.2124	19.3054	-184.456	33.7149	41.8473	-161.246	30.6309	28.6861	
15	0.125	-143.962	7.76778	37.2733	-147.539	-18.592	15.4341	-163.745	-29.1737	-5.433	-187.237	-30.2812	-8.71176	-146.829	21.7613	-25.8858	-140.545	21.633	-45.4428	-139.689	27.902	-68.6656	-173.073	23.3325	-31.1909	-171.529	19.998	-58.1876	-176.88	20.1852	-78.7196	-192.467	18.5562	-23.9878	-193.557	11.5655	-44.0215	-198.31	7.24692	-63.4281	-209.296	1.36178	-10.7191	-200.097	-20.6119	-9.38088	-183.206	-23.6413	11.891	-187.263	33.869	14.7872	-184.382	41.2303	40.8238	-158.407	38.5297	24.2409	
16	0.133333	-144.474	13.9741	35.6535	-149.351	-12.9083	9.04709	-164.863	-20.5855	-6.52902	-192.604	-17.6574	-13.8744	-148.92	29.644	-26.6064	-145.242	30.2944	-51.3248	-140.653	35.4353	-68.8328	-174.639	30.797	-32.795	-175.588	28.8568	-58.8643	-178.015	28.2726	-81.2032	-190.343	26.2291	-28.6831	-197.234	21.8515	-49.4747	-200.148	18.5295	-70.6389	-208.801	9.64365	-14.4567	-203.082	-11.4675	-13.4288	-187.692	-16.1394	6.1816	-188.244	43.0404	16.4561	-183.684	49.2965	36.682	-160.747	44.977	21.6998	
17	0.141667	-145.804	18.6904	31.4625	-151.782	-6.34092	11.5337	-167.516	-14.5974	-7.41577	-194.822	-12.1144	-16.3756	-147.679	35.0191	-28.3451	-147.264	35.7834	-53.6433	-142.423	39.323	-71.1645	-174.338	38.5686	-39.8323	-174.13	35.2716	-60.4086	-180.376	34.4519	-87.9715	-195.418	36.7442	-31.0353	-199.417	32.4718	-48.9977	-198.542	26.8542	-71.3877	-209.988	22.4862	-15.6645	-207.017	-3.78191	-13.9022	-193.046	-8.71736	2.27165	-186.826	51.4374	11.5706	-186.354	56.8252	34.8177	-162.795	51.3961	21.8848	
18	0.15	-147.79	23.6412	29.9898	-154.563	-0.226286	12.3059	-172.046	-10.6213	-10.3646	-195.355	-4.37958	-13.7194	-151.331	36.9618	-29.3009	-147.257	35.705	-52.4063	-146.218	37.7232	-73.5489	-175.151	41.9175	-37.7864	-180.139	36.467	-64.5752	-183.448	33.4524	-83.2365	-196.655	41.6055	-29.664	-203.49	35.6913	-51.7154	-204.541	30.1459	-73.5158	-213.552	27.4206	-14.974	-207.384	1.98482	-14.0326	-193.154	-3.28833	1.88607	-187.58	56.4871	12.5072	-187.329	64.5307	36.6406	-165.381	54.7292	22.3843	
19	0.158333	-151.537	31.3889	32.8678	-150.146	2.9071	13.253	-166.267	-6.82538	-4.87831	-192.362	-8.39196	-12.8888	-154.522	38.8667	-33.9743	-150.078	33.6075	-49.7884	-147.256	29.8737	-73.2752	-178.505	37.5513	-40.7742	-176.642	27.9824	-60.8368	-183.479	19.696	-81.7423	-200.677	35.4043	-32.8986	-200.934	27.2237	-48.6058	-202.503	18.2651	-70.9333	-215.177	22.8007	-12.8848	-207.604	-2.07533	-10.5391	-191.036	-3.6283	9.4704	-193.357	57.911	8.73255	-192.315	63.1207	37.6924	-164.747	59.2653	22.8114	
20	0.166667	-157.514	42.0495	37.3159	-145.721	13.5097	15.3834	-157.249	-3.55069	-1.74794	-182.808	-13.9408	-5.57546	-161.168	39.709	-27.6435	-155.577	30.9252	-51.6527	-149.887	24.5309	-72.616	-183.764	27.1525	-34.3362	-175.951	16.3873	-55.098	-176.821	0.795633	-76.6498	-200.001	19.1927	-26.3004	-197.852	5.48721	-47.7772	-191.85	-3.72753	-61.9867	-208.974	4.06392	-7.73222	-193.384	-14.1478	-1.66272	-177.082	-5.6682	15.9749	-203.956	45.0549	11.5634	-205.28	54.753	34.0032	-182.415	59.1679	18.9592	
21	0.175	-169.098	52.4141	33.9776	-147.527	31.7643	22.8825	-148.242	7.74847	6.61008	-163.082	-11.0675	6.41334	-170.696	37.4775	-27.9593	-160.846	32.1777	-46.2775	-153.616	25.3302	-65.1831	-181.944	17.6499	-32.9186	-173.592	2.66372	-49.5544	-165.312	-10.3658	-65.5409	-195.18	3.09324	-18.3209	-184.493	-10.5871	-37.0886	-176.966	-21.1194	-49.8541	-193.5	-12.1416	0.495476	-171.658	-16.5553	10.0879	-166.114	-2.69616	26.5059	-212.84	28.7574	13.9926	-220.464	39.7661	39.4007	-200.231	52.9353	21.3143	
